<svg width="202" height="202" viewBox="0 0 202 202" fill="none" xmlns="http://www.w3.org/2000/svg">
<g transform="translate(11,0)">
<path d="M92.8081 94.4248L6.19212 48.2903C5.75314 48.0681 5.38441 47.7289 5.12684 47.3103C4.86926 46.8918 4.73291 46.4101 4.73291 45.9189C4.73291 45.4277 4.86926 44.946 5.12684 44.5274C5.38441 44.1088 5.75314 43.7696 6.19212 43.5475L92.5921 4.38349C93.719 3.85734 94.948 3.58463 96.1921 3.58463C97.4362 3.58463 98.6652 3.85734 99.7921 4.38349L175.32 44.9847C175.637 45.1479 175.904 45.3952 176.089 45.6994C176.275 46.0037 176.374 46.3531 176.374 46.7094C176.374 47.0656 176.275 47.4151 176.089 47.7193C175.904 48.0235 175.637 48.2708 175.32 48.434L92.8081 94.4248Z" fill="#FFA51F" stroke="#532B1E" stroke-width="6" stroke-miterlimit="10"/>
<path d="M92.7359 90.4724L8.49589 44.4817C7.98823 44.2057 7.41703 44.0671 6.83907 44.0797C6.26111 44.0924 5.69654 44.2558 5.20147 44.5537C4.7064 44.8516 4.29808 45.2737 4.01711 45.7779C3.73614 46.2822 3.5923 46.851 3.5999 47.4279V154.069C3.60748 155.323 3.94376 156.553 4.57531 157.637C5.20687 158.722 6.1117 159.622 7.19989 160.249L86.3999 198.191C86.7392 198.348 87.1124 198.417 87.4853 198.392C87.8582 198.367 88.2189 198.249 88.5342 198.048C88.8495 197.848 89.1094 197.572 89.29 197.245C89.4706 196.919 89.5662 196.552 89.5679 196.179L92.7359 90.4724Z" fill="#FFA51F" stroke="#532B1E" stroke-width="6" stroke-miterlimit="10"/>
<path d="M92.7359 90.4724L90.1439 194.67C90.1195 195.2 90.2324 195.728 90.4716 196.202C90.7108 196.676 91.0683 197.08 91.5096 197.376C91.9509 197.672 92.4611 197.85 92.9912 197.892C93.5213 197.934 94.0532 197.839 94.5359 197.617L172.152 162.117C173.415 161.551 174.488 160.632 175.241 159.472C175.995 158.313 176.397 156.96 176.4 155.578V47.7873C176.399 47.2992 176.271 46.8197 176.027 46.3964C175.784 45.9731 175.434 45.6206 175.012 45.3737C174.59 45.1269 174.111 44.9943 173.622 44.9891C173.133 44.9839 172.651 45.1062 172.224 45.344L92.7359 90.4724Z" fill="#FFA51F" stroke="#532B1E" stroke-width="6" stroke-miterlimit="10"/>
<path d="M37.5 29.5L117.755 78.4439V104.242C117.742 104.67 117.842 105.094 118.045 105.471C118.249 105.848 118.547 106.165 118.912 106.391C119.277 106.616 119.694 106.742 120.123 106.756C120.552 106.77 120.977 106.671 121.355 106.469L147.635 93.7502C148.063 93.5613 148.422 93.247 148.667 92.8491C148.911 92.4512 149.028 91.9885 149.003 91.5225V60.9099L68 16" fill="#EDE7D9"/>
<path d="M37.5 29.5L117.755 78.4439V104.242C117.742 104.67 117.842 105.094 118.045 105.471C118.249 105.848 118.547 106.165 118.912 106.391C119.277 106.616 119.694 106.742 120.123 106.756C120.552 106.77 120.977 106.671 121.355 106.469L147.635 93.7502C148.063 93.5613 148.422 93.247 148.667 92.8491C148.911 92.4512 149.028 91.9885 149.003 91.5225V60.9099L68 16L37.5 29.5Z" stroke="#532B1E" stroke-width="6" stroke-miterlimit="10"/>
</g>
</svg>

