<svg width="40" height="40" viewBox="0 0 40 40" fill="none" xmlns="http://www.w3.org/2000/svg">
<g transform="translate(0,3)">
<path d="M12 33.4444C10.9 33.4444 9.958 33.1166 9.174 32.4611C8.39 31.8056 7.99867 31.0186 8 30.1C8 29.1802 8.392 28.3926 9.176 27.7371C9.96 27.0816 10.9013 26.7544 12 26.7555C13.1 26.7555 14.042 27.0833 14.826 27.7388C15.61 28.3943 16.0013 29.1813 16 30.1C16 31.0197 15.608 31.8073 14.824 32.4628C14.04 33.1183 13.0987 33.4455 12 33.4444ZM32 33.4444C30.9 33.4444 29.958 33.1166 29.174 32.4611C28.39 31.8056 27.9987 31.0186 28 30.1C28 29.1802 28.392 28.3926 29.176 27.7371C29.96 27.0816 30.9013 26.7544 32 26.7555C33.1 26.7555 34.042 27.0833 34.826 27.7388C35.61 28.3943 36.0013 29.1813 36 30.1C36 31.0197 35.608 31.8073 34.824 32.4628C34.04 33.1183 33.0987 33.4455 32 33.4444ZM10.3 6.68888L15.1 15.05H29.1L34.6 6.68888H10.3ZM8.4 3.34444H37.9C38.6667 3.34444 39.25 3.63039 39.65 4.20229C40.05 4.77419 40.0667 5.35222 39.7 5.93638L32.6 16.6386C32.2333 17.196 31.7413 17.628 31.124 17.9346C30.5067 18.2411 29.832 18.3944 29.1 18.3944H14.2L12 21.7389H36V25.0833H12C10.5 25.0833 9.36667 24.5326 8.6 23.4311C7.83333 22.3297 7.8 21.2361 8.5 20.1502L11.2 16.0533L4 3.34444H0V0H6.5L8.4 3.34444Z" fill="#532B1E"/>
</g>
</svg>
