<svg width="19" height="19" viewBox="0 0 19 19" fill="none" xmlns="http://www.w3.org/2000/svg">
<g transform="translate(0.5,0)">
<path d="M15.1524 1H2.84726C1.71416 1 0.769735 1.94436 1.04968 3.05476C1.3477 4.23147 1.89669 5.32787 2.65808 6.26694C3.41948 7.20602 4.37481 7.96499 5.45697 8.49054C6.3009 8.89942 6.94897 9.70264 6.94897 10.6491V16.9628C6.94907 17.1396 6.9938 17.3135 7.07894 17.4679C7.16408 17.6223 7.28679 17.7522 7.43543 17.8451C7.58407 17.938 7.75372 17.991 7.92827 17.9989C8.10281 18.0069 8.27647 17.9696 8.43277 17.8906L10.4836 16.8528C10.6539 16.7667 10.7972 16.6343 10.8973 16.4704C10.9975 16.3065 11.0506 16.1177 11.0507 15.925V10.6491C11.0507 9.70264 11.6988 8.89942 12.5417 8.49054C13.6243 7.96529 14.58 7.20644 15.3418 6.26734C16.1036 5.32825 16.6528 4.23169 16.951 3.05476C17.2289 1.94436 16.2835 1 15.1524 1Z" stroke="#532B1E" stroke-width="1.5"/>
</g>
</svg>
