<svg width="24" height="24" viewBox="0 0 24 24" fill="none" xmlns="http://www.w3.org/2000/svg">
<path d="M17.0547 5.65593C17.0547 5.31941 17.1884 4.99668 17.4263 4.75872C17.6643 4.52077 17.987 4.38708 18.3235 4.38708C18.6601 4.38708 18.9828 4.52077 19.2207 4.75872C19.4587 4.99668 19.5924 5.31941 19.5924 5.65593C19.5924 5.99245 19.4587 6.31519 19.2207 6.55314C18.9828 6.7911 18.6601 6.92478 18.3235 6.92478C17.987 6.92478 17.6643 6.7911 17.4263 6.55314C17.1884 6.31519 17.0547 5.99245 17.0547 5.65593Z" fill="#532B1E"/>
<path fill-rule="evenodd" clip-rule="evenodd" d="M11.9801 5.97314C10.3817 5.97314 8.84869 6.60813 7.7184 7.73842C6.58811 8.86871 5.95313 10.4017 5.95312 12.0002C5.95313 13.5986 6.58811 15.1316 7.7184 16.2619C8.84869 17.3922 10.3817 18.0272 11.9801 18.0272C13.5786 18.0272 15.1116 17.3922 16.2419 16.2619C17.3722 15.1316 18.0072 13.5986 18.0072 12.0002C18.0072 10.4017 17.3722 8.86871 16.2419 7.73842C15.1116 6.60813 13.5786 5.97314 11.9801 5.97314ZM7.8564 12.0002C7.8564 10.9065 8.29086 9.85759 9.06422 9.08424C9.83757 8.31088 10.8865 7.87642 11.9801 7.87642C13.0738 7.87642 14.1227 8.31088 14.8961 9.08424C15.6694 9.85759 16.1039 10.9065 16.1039 12.0002C16.1039 13.0939 15.6694 14.1427 14.8961 14.9161C14.1227 15.6895 13.0738 16.1239 11.9801 16.1239C10.8865 16.1239 9.83757 15.6895 9.06422 14.9161C8.29086 14.1427 7.8564 13.0939 7.8564 12.0002Z" fill="#532B1E"/>
<path fill-rule="evenodd" clip-rule="evenodd" d="M18.652 0.368668C14.2178 -0.122889 9.74294 -0.122889 5.30879 0.368668C2.75587 0.654158 0.693996 2.66528 0.394548 5.23089C-0.131516 9.72843 -0.131516 14.272 0.394548 18.7695C0.693996 21.3351 2.7546 23.3462 5.30879 23.6317C9.74297 24.1228 14.2178 24.1228 18.652 23.6317C21.2049 23.3462 23.2668 21.3351 23.5662 18.7695C24.0924 14.272 24.0924 9.72842 23.5662 5.23089C23.2668 2.66528 21.2062 0.654158 18.652 0.368668ZM5.51942 2.25925C9.81359 1.78327 14.1472 1.78327 18.4414 2.25925C20.1289 2.44958 21.4803 3.7806 21.6769 5.45294C22.1857 9.80295 22.1857 14.1974 21.6769 18.5474C21.5752 19.3659 21.2005 20.1262 20.6134 20.7054C20.0263 21.2847 19.2611 21.6491 18.4414 21.7399C14.1472 22.2159 9.81358 22.2159 5.51942 21.7399C4.69967 21.6491 3.93444 21.2847 3.34735 20.7054C2.76026 20.1262 2.38559 19.3659 2.28386 18.5474C1.77512 14.1974 1.77512 9.80295 2.28386 5.45294C2.38559 4.63448 2.76026 3.87421 3.34735 3.29495C3.93444 2.71568 4.69967 2.34998 5.51942 2.25925Z" fill="#532B1E"/>
</svg>
