<svg width="25" height="24" viewBox="0 0 25 24" fill="none" xmlns="http://www.w3.org/2000/svg">
<path fill-rule="evenodd" clip-rule="evenodd" d="M12.6279 0C6.00033 0 0.62793 5.3724 0.62793 12C0.62793 18.6276 6.00033 24 12.6279 24C19.2555 24 24.6279 18.6276 24.6279 12C24.6279 5.3724 19.2555 0 12.6279 0ZM3.02793 12C3.02832 10.002 3.65208 8.05396 4.81226 6.42735C5.97244 4.80073 7.61123 3.57663 9.50019 2.92568C11.3891 2.27473 13.4341 2.22936 15.3501 2.79591C17.2661 3.36245 18.9575 4.51267 20.1887 6.08623C21.4199 7.65979 22.1294 9.57828 22.2184 11.5743C22.3074 13.5703 21.7714 15.5443 20.6852 17.2212C19.5989 18.8981 18.0165 20.1942 16.1586 20.9291C14.3006 21.6639 12.2597 21.8007 10.3203 21.3204L11.1819 17.2716C12.0063 17.9868 13.0299 18.2592 14.0127 18.2412C15.0903 18.2208 16.1727 17.8572 17.0787 17.2872C17.9811 16.7196 18.7875 15.8952 19.2291 14.8788C19.7064 13.7831 19.9035 12.5858 19.8025 11.3949C19.7015 10.2041 19.3057 9.05704 18.6507 8.05736C17.9957 7.05767 17.1022 6.23676 16.0507 5.66867C14.9992 5.10057 13.8228 4.80317 12.6276 4.80328C11.4325 4.80339 10.2561 5.10101 9.20473 5.66929C8.15333 6.23758 7.25993 7.05865 6.60512 8.05845C5.9503 9.05826 5.55467 10.2053 5.4539 11.3962C5.35314 12.5871 5.55041 13.7844 6.02793 14.88C6.08768 15.0292 6.17678 15.1648 6.28995 15.2789C6.40312 15.393 6.53804 15.4832 6.68672 15.5441C6.83541 15.6051 6.99482 15.6355 7.15549 15.6337C7.31617 15.6319 7.47485 15.5978 7.62211 15.5335C7.76937 15.4692 7.90222 15.376 8.01277 15.2594C8.12332 15.1427 8.20932 15.0051 8.26567 14.8546C8.32203 14.7041 8.34758 14.5439 8.34082 14.3833C8.33406 14.2228 8.29513 14.0652 8.22633 13.92C7.94189 13.2661 7.80672 12.557 7.83063 11.8444C7.85455 11.1317 8.03696 10.4333 8.36459 9.79991C8.69223 9.16655 9.15687 8.61415 9.72474 8.18286C10.2926 7.75156 10.9494 7.4522 11.6475 7.30655C12.3455 7.16089 13.0673 7.1726 13.7602 7.34081C14.4532 7.50903 15.1 7.82952 15.6536 8.279C16.2071 8.72849 16.6536 9.29567 16.9605 9.93932C17.2675 10.583 17.4271 11.2869 17.4279 12C17.4279 13.314 16.9359 14.5404 15.7995 15.2556C15.2139 15.6252 14.5527 15.8316 13.9683 15.8412C13.3959 15.8532 12.9579 15.6804 12.6543 15.3624C12.3567 15.0504 12.0291 14.448 12.0291 13.32C12.0291 12.6 12.3039 12 12.6327 10.4496C12.6683 10.2944 12.6727 10.1337 12.6455 9.97689C12.6184 9.82003 12.5604 9.67013 12.4747 9.53593C12.3891 9.40173 12.2776 9.2859 12.1468 9.1952C12.016 9.1045 11.8684 9.04074 11.7127 9.00762C11.557 8.9745 11.3963 8.9727 11.2399 9.00231C11.0835 9.03193 10.9345 9.09236 10.8017 9.18011C10.6688 9.26785 10.5548 9.38114 10.4662 9.51339C10.3776 9.64563 10.3162 9.79419 10.2855 9.9504L8.05353 20.442C6.53298 19.6182 5.26327 18.3988 4.37864 16.9128C3.49401 15.4268 3.02733 13.7294 3.02793 12Z" fill="#532B1E"/>
</svg>
