<svg version="1.0" xmlns="http://www.w3.org/2000/svg" width="512.000000pt" height="512.000000pt" viewBox="0 0 512.000000 512.000000" preserveAspectRatio="xMidYMid meet">
<g transform="translate(0,512) scale(0.1,-0.1)" fill="#532B1E" stroke="none">
<path d="M2370 5113 c-379 -36 -661 -116 -980 -278 -378 -193 -717 -497 -965
-865 -104 -156 -232 -419 -294 -605 -49 -150 -89 -321 -113 -490 -17 -118 -17
-512 0 -630 42 -295 120 -553 242 -800 137 -280 272 -468 494 -691 221 -220
412 -357 681 -489 188 -92 309 -137 500 -185 500 -126 1002 -102 1490 71 149
53 407 182 540 271 365 243 667 578 866 963 181 348 271 694 286 1090 15 426
-73 832 -263 1214 -124 250 -263 447 -458 648 -216 224 -428 378 -711 518
-296 146 -572 225 -900 255 -102 9 -333 11 -415 3z m395 -303 c785 -72 1480
-553 1825 -1264 106 -217 166 -409 206 -661 25 -154 25 -496 0 -650 -40 -252
-100 -444 -206 -661 -223 -458 -585 -820 -1045 -1045 -216 -105 -408 -165
-660 -205 -154 -25 -496 -25 -650 0 -433 70 -808 240 -1135 514 -498 417 -800
1067 -800 1722 0 655 301 1302 800 1723 464 390 1069 582 1665 527z"/>
<path d="M1065 3261 c-53 -32 -68 -58 -73 -119 -3 -51 1 -66 39 -142 59 -119
172 -232 290 -288 217 -105 461 -90 653 39 98 65 166 143 222 254 40 78 45 96
41 137 -8 89 -80 147 -167 135 -59 -8 -88 -34 -130 -117 -53 -106 -126 -172
-222 -201 -174 -53 -344 22 -423 185 -48 101 -90 136 -162 136 -21 0 -51 -8
-68 -19z"/>
<path d="M2962 3264 c-44 -23 -74 -67 -80 -119 -4 -37 2 -58 41 -138 78 -161
206 -272 382 -333 70 -25 95 -28 200 -28 137 0 197 14 310 72 203 105 374 387
297 491 -61 83 -170 95 -234 24 -9 -10 -33 -51 -53 -90 -59 -119 -163 -190
-289 -200 -152 -13 -285 70 -357 220 -18 39 -44 77 -62 89 -39 28 -112 34
-155 12z"/>
<path d="M2416 2239 c-219 -29 -434 -120 -613 -263 -143 -114 -293 -311 -293
-385 0 -80 67 -151 142 -151 68 0 100 21 160 106 134 192 331 326 558 380 98
24 288 24 384 1 228 -56 433 -199 565 -394 48 -73 81 -93 150 -93 55 0 99 28
126 81 38 72 4 154 -128 309 -251 297 -666 458 -1051 409z"/>
</g>
</svg>
