<svg width="26" height="26" viewBox="0 0 26 26" fill="#FFA51F" xmlns="http://www.w3.org/2000/svg">
<path d="M12.072 1.6526C12.4079 0.816129 13.5921 0.816128 13.928 1.6526L16.3231 7.61696C16.6092 8.32937 17.2778 8.81515 18.0437 8.86708L24.4563 9.30189C25.3556 9.36287 25.7216 10.4891 25.0298 11.067L20.0975 15.188C19.5084 15.6802 19.253 16.4662 19.4403 17.2107L21.0084 23.4438C21.2283 24.318 20.2703 25.014 19.5069 24.5347L14.0634 21.1173C13.4132 20.7091 12.5868 20.7091 11.9366 21.1173L6.49312 24.5347C5.72971 25.014 4.77172 24.318 4.99163 23.4438L6.5597 17.2107C6.747 16.4662 6.49161 15.6802 5.90247 15.188L0.970163 11.067C0.278434 10.4891 0.644352 9.36287 1.54368 9.30189L7.95626 8.86708C8.7222 8.81515 9.39082 8.32937 9.67691 7.61696L12.072 1.6526Z" stroke="#532B1E"/>
</svg>