<svg width="196" height="196" viewBox="0 0 196 196" fill="none" xmlns="http://www.w3.org/2000/svg">
<g transform="translate(0,1)">
<path d="M23.4995 1.79703H169.327L193.325 59.9127H2.60205L23.4995 1.79703Z" fill="#FFA51F" stroke="#532B1E" stroke-width="6" stroke-miterlimit="10" stroke-linecap="round"/>
<path d="M169.038 84.9631H27.649C21.4611 84.9631 16.4448 89.9514 16.4448 96.1047V180.061C16.4448 186.215 21.4611 191.203 27.649 191.203H169.038C175.226 191.203 180.242 186.215 180.242 180.061V96.1047C180.242 89.9514 175.226 84.9631 169.038 84.9631Z" fill="#FFA51F" stroke="#532B1E" stroke-width="6" stroke-miterlimit="10" stroke-linecap="round"/>
<path d="M48.8648 122.312H146.919C150.379 122.312 153.698 123.678 156.145 126.112C158.592 128.545 159.966 131.845 159.966 135.286V190.203H35.8174V135.25C35.827 131.815 37.2058 128.524 39.6516 126.099C42.0975 123.674 45.4106 122.312 48.8648 122.312Z" fill="#EDE7D9" stroke="#532B1E" stroke-width="6" stroke-miterlimit="10" stroke-linecap="round"/>
<rect x="78" y="125" width="40" height="63" fill="#FFA51F"/>
<path d="M118.186 124.462V191.203" stroke="#532B1E" stroke-width="6" stroke-miterlimit="10" stroke-linecap="round"/>
<path d="M78.8989 123.312V191.203" stroke="#532B1E" stroke-width="6" stroke-miterlimit="10" stroke-linecap="round"/>
<path d="M40.7326 61.0987H2.6024V89.0603C2.56483 89.4548 2.56483 89.8519 2.6024 90.2464C2.6024 90.6777 2.6024 91.073 2.6024 91.4683C2.82735 96.2804 4.9631 100.807 8.54085 104.055C12.1186 107.303 16.846 109.006 21.6856 108.792C26.5155 109.006 31.2337 107.307 34.8047 104.065C38.3757 100.824 40.5076 96.3068 40.7326 91.5043C40.7326 91.2168 40.7326 90.9652 40.7326 90.6777C40.7505 90.3904 40.7505 90.1023 40.7326 89.8151V61.0987Z" fill="#FFA51F" stroke="#532B1E" stroke-width="6" stroke-miterlimit="10" stroke-linecap="round"/>
<path d="M78.8986 61.0987H40.7323V89.0603C40.6947 89.4548 40.6947 89.8519 40.7323 90.2464C40.7323 90.6777 40.7323 91.073 40.7323 91.4683C40.9665 96.274 43.1063 100.792 46.683 104.032C50.2597 107.272 54.9819 108.971 59.8154 108.756C64.649 108.971 69.3712 107.272 72.9479 104.032C76.5246 100.792 78.6644 96.274 78.8986 91.4683C78.8986 91.1808 78.8986 90.9292 78.8986 90.6417C78.916 90.3544 78.916 90.0664 78.8986 89.7791V61.0987Z" fill="#FFA51F" stroke="#532B1E" stroke-width="6" stroke-miterlimit="10" stroke-linecap="round"/>
<path d="M117.029 61.0987H78.8986V89.0603C78.8613 89.4548 78.8613 89.8519 78.8986 90.2464C78.8986 90.6777 78.8986 91.073 78.8986 91.4683C79.1236 96.2709 81.2555 100.788 84.8265 104.03C88.3975 107.271 93.1157 108.97 97.9456 108.756C102.779 108.971 107.501 107.272 111.078 104.032C114.655 100.792 116.795 96.274 117.029 91.4683C117.046 91.1931 117.046 90.917 117.029 90.6417C117.064 90.3552 117.064 90.0656 117.029 89.7791V61.0987Z" fill="#FFA51F" stroke="#532B1E" stroke-width="6" stroke-miterlimit="10" stroke-linecap="round"/>
<path d="M155.159 61.0987H117.029V89.0603C116.973 89.4538 116.973 89.8529 117.029 90.2464C117.029 90.6777 117.029 91.073 117.029 91.4683C117.263 96.274 119.403 100.792 122.98 104.032C126.556 107.272 131.278 108.971 136.112 108.756C140.942 108.97 145.66 107.271 149.231 104.03C152.802 100.788 154.934 96.2709 155.159 91.4683C155.159 91.1808 155.159 90.9292 155.159 90.6417C155.177 90.3545 155.177 90.0664 155.159 89.7791V61.0987Z" fill="#FFA51F" stroke="#532B1E" stroke-width="6" stroke-miterlimit="10" stroke-linecap="round"/>
<path d="M193.325 61.0987H155.159V89.0603C155.121 89.4548 155.121 89.8519 155.159 90.2464C155.159 90.6777 155.159 91.073 155.159 91.4683C155.575 96.2161 157.766 100.636 161.298 103.857C164.831 107.077 169.45 108.864 174.242 108.864C179.035 108.864 183.653 107.077 187.186 103.857C190.719 100.636 192.909 96.2161 193.325 91.4683C193.325 91.1808 193.325 90.9292 193.325 90.6417C193.343 90.3544 193.343 90.0664 193.325 89.7791V61.0987Z" fill="#FFA51F" stroke="#532B1E" stroke-width="6" stroke-miterlimit="10" stroke-linecap="round"/>
</g>
</svg>
