<svg width="279" height="279" viewBox="0 0 279 279" fill="none" xmlns="http://www.w3.org/2000/svg">
<g transform="translate(0,45)">
<path d="M172.252 155.432V1.72321H11.7837V155.432" fill="#FFA51F"/>
<path d="M172.252 155.432V1.72321H11.7837V155.432" stroke="#532B1E" stroke-width="10" stroke-miterlimit="10" stroke-linecap="round"/>
<path d="M192.319 32.2238H227.706L277.267 87.366V155.432H0" stroke="#532B1E" stroke-width="10" stroke-miterlimit="10" stroke-linecap="round"/>
<path d="M205.004 60.5186V87.366H243.926L224.482 60.5186H205.004Z" stroke="#532B1E" stroke-width="10" stroke-miterlimit="10" stroke-linecap="round"/>
<path d="M51.4678 32.2238V114.661" stroke="#532B1E" stroke-width="10" stroke-miterlimit="10" stroke-linecap="round"/>
<path d="M90.4238 32.2238V114.661" stroke="#532B1E" stroke-width="10" stroke-miterlimit="10" stroke-linecap="round"/>
<path d="M127.127 32.2238V114.661" stroke="#532B1E" stroke-width="10" stroke-miterlimit="10" stroke-linecap="round"/>
<path d="M59.5432 187.277C73.7078 187.277 85.1904 175.859 85.1904 161.774C85.1904 147.688 73.7078 136.27 59.5432 136.27C45.3786 136.27 33.896 147.688 33.896 161.774C33.896 175.859 45.3786 187.277 59.5432 187.277Z" fill="#EDE7D9" stroke="#532B1E" stroke-width="10" stroke-miterlimit="10" stroke-linecap="round"/>
<path d="M120.611 187.277C134.776 187.277 146.258 175.859 146.258 161.774C146.258 147.688 134.776 136.27 120.611 136.27C106.447 136.27 94.9639 147.688 94.9639 161.774C94.9639 175.859 106.447 187.277 120.611 187.277Z" fill="#EDE7D9" stroke="#532B1E" stroke-width="10" stroke-miterlimit="10" stroke-linecap="round"/>
<path d="M227.463 187.277C241.628 187.277 253.11 175.859 253.11 161.774C253.11 147.688 241.628 136.27 227.463 136.27C213.299 136.27 201.816 147.688 201.816 161.774C201.816 175.859 213.299 187.277 227.463 187.277Z" fill="#EDE7D9" stroke="#532B1E" stroke-width="10" stroke-miterlimit="10" stroke-linecap="round"/>
</g>
</svg>
